<svg id="food" xmlns="http://www.w3.org/2000/svg" width="119" height="130" viewBox="0 0 119 130">
  <rect id="Rechteck_196" data-name="Rechteck 196" width="119" height="130" fill="none"/>
  <path id="Pfad_21" data-name="Pfad 21" d="M22.555,71.353,16.12,61.266l1.763-6.936,14.883-9.836L53.325,41.97,76.657,45l11.232,4.412s8.449,7.312,8.574,8.825-2.273,9.46-2.4,9.836S92.3,76.642,87.378,78.406,50.809,84.715,50.3,84.456,22.555,71.353,22.555,71.353Z" transform="translate(3.083 5.223)" fill="#2f2f2f"/>
  <path id="Pfad_22" data-name="Pfad 22" d="M19.75,69.517a20.739,20.739,0,0,1,.919-4.27C21.639,62.388,30.6,49.97,55.693,49.97S94.66,62.33,93.273,68.505,74.612,90.2,74.612,90.2s-30.268-4.663-30.77-4.788S19.75,69.517,19.75,69.517Z" transform="translate(2.486 3.908)" fill="#f7b03a"/>
  <path id="Pfad_23" data-name="Pfad 23" d="M32.274,62.744a1.435,1.435,0,0,0-1.312,1.488,1.274,1.274,0,0,0,1.546,1.137,1.437,1.437,0,0,0,1.345-1.721A1.3,1.3,0,0,0,32.274,62.744Zm-.7,3.969c.735,1.162-.376,2.774-2.6,3.476s-3.769.351-4.028-1.17,1.722-2.482,2.741-2.833S30.812,65.519,31.572,66.714Zm11.908-8.407c.05,1.128,1.663,1.755,3.944,1.462s3.5-1.546,3.385-2.683-1.722-1.579-3.56-1.462S43.422,56.878,43.481,58.307Zm7.83-2.95c0,1.011,1.2,1.345,2.741,1.254,1.838-.1,2.34-.819,2.423-1.488s-1.02-1.722-2.574-1.6c-1.538.117-2.591.727-2.591,1.839Zm15.326,9.46c-.117,1.279.76,2.683,4.2,2.4s4.12-2.014,4.12-2.624-.568-2.465-3.852-2.515c-1.981-.033-4.3.811-4.471,2.741Zm16.037-.727c-.067.652.142,2.34,3.242,2.248s2.716-1.137,2.716-1.6A3.651,3.651,0,0,0,85.39,62.31C83.644,62.117,82.791,63,82.674,64.09Zm3.969,4.521c-.058.786.844,1.4,2.774,1.287,1.638-.1,2.348-.961,2.306-1.6-.058-.936-.961-1.4-2.365-1.345C88.131,67,86.736,67.508,86.644,68.611Zm-35.45,7.83c.033.669,1.462,1.462,3.769,1.462S57.7,76.942,57.7,76.24s-.727-1.488-2.858-1.579c-1.905-.084-3.71.643-3.652,1.78Z" transform="translate(1.636 3.326)" fill="#ffe36a"/>
  <path id="Pfad_24" data-name="Pfad 24" d="M27.71,74.968a7.483,7.483,0,0,1,.61-1.813,2.2,2.2,0,0,1,1.813-1.17c1.345,0,4.379.526,5.081,1.488a2.949,2.949,0,0,1-1.579,3.969C31.588,78.118,27.71,74.968,27.71,74.968ZM33.953,61.53A2.061,2.061,0,0,0,36,63.051c1.137-.084,4.437-1.6,4.763-2.281s-1.02-2.189-1.9-2.189S33.869,60.427,33.953,61.53Zm33.645,9c-.343.694-.7,2.741.786,3.3s7.245.819,7.245-.844a3.374,3.374,0,0,0-2.248-2.95c-.618-.092-5.256-.56-5.783.493Zm6.744-2.716c-.944,1.462.777,3.2,2.047,3.794,2.741,1.287,4.12,1.07,5.081.351,1.638-1.228,1.078-2.457-2.423-4.086C76.547,66.7,74.984,66.82,74.341,67.814Z" transform="translate(1.178 2.493)" fill="#d64c12"/>
  <path id="Pfad_25" data-name="Pfad 25" d="M65.07,58.564c-.025,1.546,3.435,3.109,5.925,3.184s3.142-1.095,3.326-1.646-.694-2.449-1.68-3.259a8.441,8.441,0,0,0-4.646-1.5,3.435,3.435,0,0,0-2.925,3.217Z" transform="translate(-4.961 3.027)" fill="#7f594b"/>
  <path id="Pfad_26" data-name="Pfad 26" d="M40.727,68.453c.167,1.045,1.763,1.755,4.571,1.939,3.4.217,5.557-1.32,5.632-1.972s-1.905-2.34-5.373-2.34c-4.212-.008-4.972,1.454-4.83,2.373Z" transform="translate(-0.958 1.261)" fill="#fe8d00"/>
  <path id="Pfad_27" data-name="Pfad 27" d="M39.289,75.474c-.109,1.864,1.2,2.632,3.034,2.557s5.265-1.788,5.958-3.769c.435-1.228-1.613-3.4-4.613-3.293-1.73.067-4.287,2.875-4.379,4.5Z" transform="translate(-0.723 0.458)" fill="#7f594b"/>
  <path id="Pfad_28" data-name="Pfad 28" d="M77.74,61.987c.735.4,3.476-.368,5.632-.8s4.354-.66,4.68-1.354-.259-3.618-3.476-3.878-5.048.953-5.816,1.788a6.081,6.081,0,0,0-1.32,2.156c-.033.3-.209,1.813.3,2.089Zm13.1,5.49c1.045-.184.368-3.326-.476-4.279s-3.217-1.387-4.722-1.2-2.524.585-2.6,1.429,2.6,2.265,3.986,2.891a11.15,11.15,0,0,0,3.811,1.162Z" transform="translate(-6.984 2.931)" fill="#fe8d00"/>
  <path id="Pfad_29" data-name="Pfad 29" d="M50.286,70.7c.861.3,2.866-.284,2.891-1.554s-1.12-2.457-2.248-2.2a3.613,3.613,0,0,0-1.73,2.173A2.2,2.2,0,0,0,50.286,70.7ZM54.5,63.079c.075,1.011,2.323,2.064,3.1,1.4.735-.635.309-3.334-.643-3.334A3.142,3.142,0,0,0,54.5,63.079Zm2.123,4.855c.017.359.543,2.014,1.838,1.989s3.05-1.345,3.05-2.014-2.039-2.816-3-2.791c-.652.017-1.914,2.123-1.889,2.816Z" transform="translate(-2.353 2.073)" fill="#92a51e"/>
  <path id="Pfad_30" data-name="Pfad 30" d="M63.176,63.312c-.15.894.518.986,1.111,1.086a3.051,3.051,0,0,1,2.123,1.3,16.311,16.311,0,0,1,1.63,3.334,1.555,1.555,0,0,0,2.507.209c.928-.9-.9-4.88-2.532-6.151S63.46,61.657,63.176,63.312Z" transform="translate(-4.646 1.914)" fill="#fbe0bc"/>
  <path id="Pfad_31" data-name="Pfad 31" d="M62.678,65.689c.125.827,2.014,2.348,3.334,1.68s-.1-3.134-.677-3.4C64.976,63.792,62.494,64.485,62.678,65.689Zm7.68-2.039c-.593-.025-1.086.184-1.061,1.187s.409,2.148,1.73,2.223S72.472,65.4,72.472,65.2a2.535,2.535,0,0,0-2.114-1.546Zm.384,5.474c-.493-.117-2.866.9-2.917,1.864s.827,1.68,2.323,1.864,2.507.184,2.716-.543a3.323,3.323,0,0,0-2.123-3.184Z" transform="translate(-4.566 1.66)" fill="#92a51e"/>
  <path id="Pfad_32" data-name="Pfad 32" d="M78.259,76.669c.092.56,2.064,1.437,2.7,1.262s2.173-3.4,4.488-4.061,3.084-.384,3.4-.735-.142-1.964-.911-2.24a6.555,6.555,0,0,0-5.432.844c-2.657,1.538-4.354,4.3-4.245,4.931ZM53.564,68.713c-1.137.067-2.666,1.755-3.326,3.293-1.011,2.332-1.329,4.27-1.053,4.763s2.3,1.178,3.117.627c.209-.142.418-2.733,1.437-4.7A5.887,5.887,0,0,1,55.8,70.635c.209-.209-.384-2.022-2.24-1.922ZM43.787,56.88a5.137,5.137,0,0,0-.877,4.028c.217,1.813.468,2.917,1.053,3.184.451.209,3.677.526,3.961-.318s-1.713-3.184-1.93-3.61a20.139,20.139,0,0,1-.351-3.184C45.609,56.663,44.28,56.42,43.787,56.88Z" transform="translate(-1.31 2.814)" fill="#fbe0af"/>
  <path id="Pfad_33" data-name="Pfad 33" d="M103.142,53.892c-1.513-3.025-3.151-4.162-4.538-4.162S92.429,52,92.429,52,81.69,40.471,54.455,40.078C28.1,39.694,16.891,50.6,16.891,50.6S13.1,47.708,9.437,48.084s-6.8,9.97-5.165,12.744,4.036,2.649,5.925,3.66,3.66,2.148,4.036,2.774S15.746,81.9,19.281,88.2s10.212,14.758,34.681,15.26S85.033,94.08,88.008,88.447C91.543,81.762,93.181,69.4,93.181,69.4a21.222,21.222,0,0,1,5.3-3.4c3.067-1.254,4.412-1.513,5.3-2.774s.877-6.309-.635-9.335ZM54.84,77.475c-26.357-.259-39.1-8.582-38.717-18.034.251-6.176,12.61-16.4,36.828-16.145,24.477.259,39.728,9.084,39.6,17.274S80.7,77.725,54.84,77.475Z" transform="translate(5.102 5.535)" fill="#6a6e70"/>
  <path id="Pfad_34" data-name="Pfad 34" d="M61.876,49.4c2.666-.284,1.454-4.772,3.644-9.1,5.006-9.92,14.842-10.922,14.566-19.388-.3-9.259-14.658-13.755-19.028-10.2-1.4,1.145,6.644,2.457,5.373,7.738S55.417,24.091,53.052,32.556C50.235,42.6,60.147,49.579,61.876,49.4Z" transform="translate(-2.904 10.558)" fill="#eaeaea" opacity="0.6"/>
</svg>
