<svg id="instagram" xmlns="http://www.w3.org/2000/svg" width="70" height="70" viewBox="0 0 70 70">
  <path id="instagram-2" data-name="instagram" d="M35,0C25.491,0,24.305.044,20.571.21a25.808,25.808,0,0,0-8.5,1.628,17.162,17.162,0,0,0-6.2,4.036,17.022,17.022,0,0,0-4.036,6.2,25.752,25.752,0,0,0-1.628,8.5C.035,24.305,0,25.491,0,35S.044,45.695.21,49.429a25.82,25.82,0,0,0,1.628,8.5A17.876,17.876,0,0,0,12.075,68.163a25.832,25.832,0,0,0,8.5,1.628c3.734.175,4.92.21,14.429.21s10.695-.044,14.429-.21a25.877,25.877,0,0,0,8.5-1.628A17.876,17.876,0,0,0,68.163,57.925a25.82,25.82,0,0,0,1.628-8.5c.175-3.734.21-4.92.21-14.429s-.044-10.695-.21-14.429a25.865,25.865,0,0,0-1.628-8.5,17.191,17.191,0,0,0-4.036-6.2,17.032,17.032,0,0,0-6.2-4.036A25.764,25.764,0,0,0,49.429.21C45.695.035,44.509,0,35,0Zm0,6.3c9.343,0,10.456.046,14.147.208a19.274,19.274,0,0,1,6.495,1.21,11.526,11.526,0,0,1,6.646,6.641,19.318,19.318,0,0,1,1.205,6.495c.166,3.692.2,4.8.2,14.147s-.044,10.456-.217,14.147a19.668,19.668,0,0,1-1.227,6.495,11.14,11.14,0,0,1-2.623,4.032A10.942,10.942,0,0,1,55.6,62.287a19.461,19.461,0,0,1-6.519,1.205c-3.717.166-4.81.2-14.173.2s-10.458-.044-14.173-.217a19.83,19.83,0,0,1-6.521-1.227A10.852,10.852,0,0,1,10.2,59.629,10.647,10.647,0,0,1,7.571,55.6a19.843,19.843,0,0,1-1.225-6.519c-.131-3.675-.177-4.81-.177-14.129s.046-10.458.177-14.177a19.826,19.826,0,0,1,1.225-6.517A10.375,10.375,0,0,1,10.2,10.235a10.329,10.329,0,0,1,4.023-2.618A19.39,19.39,0,0,1,20.7,6.39c3.719-.131,4.812-.175,14.173-.175Zm0,10.728A17.972,17.972,0,1,0,52.972,35,17.971,17.971,0,0,0,35,17.028Zm0,29.638A11.666,11.666,0,1,1,46.666,35,11.663,11.663,0,0,1,35,46.666ZM57.883,16.319a4.2,4.2,0,1,1-4.2-4.2A4.2,4.2,0,0,1,57.883,16.319Z" transform="translate(0 0)" fill="#faf7f7"/>
</svg>
