<svg xmlns="http://www.w3.org/2000/svg" width="142" height="155" viewBox="0 0 142 155">
  <g id="sport" transform="translate(29.823 26.89)">
    <rect id="Rechteck_197" data-name="Rechteck 197" width="142" height="155" transform="translate(-29.823 -26.89)" fill="none"/>
    <circle id="Ellipse_1" data-name="Ellipse 1" cx="12.5" cy="12.5" r="12.5" transform="translate(38.209 0.11)" fill="#ff9800"/>
    <path id="Pfad_35" data-name="Pfad 35" d="M51.943,33.715,28.688,23.352c-2.528-1.264-3.792,2.528-5.055,5.055s-10.364,18.2-9.605,20.98a5.073,5.073,0,0,0,4.8,3.539,3.206,3.206,0,0,0,1.517-.253l31.091-9.605a4.856,4.856,0,0,0,3.539-4.55,5.36,5.36,0,0,0-3.033-4.8Z" transform="translate(0.981 25.181)" fill="#00796b"/>
    <path id="Pfad_36" data-name="Pfad 36" d="M53.988,17.084l-5.561-2.528a6.76,6.76,0,0,0-8.847,3.286L9.5,82.553a5.169,5.169,0,0,0,2.528,6.825,7.381,7.381,0,0,0,2.275.506,4.775,4.775,0,0,0,4.55-2.781S43.119,53.484,45.141,49.44,57.527,25.932,57.527,25.932a6.874,6.874,0,0,0-3.539-8.847Z" transform="translate(-6.624 11.226)" fill="#009688"/>
    <path id="Pfad_37" data-name="Pfad 37" d="M90.056,18.3a5.159,5.159,0,0,0-7.078-.758L70.34,28.155,54.162,19.308a6,6,0,0,0-8.342,2.275c-2.022,3.286-1.011,7.33,2.022,8.594l20.98,8.594a7.381,7.381,0,0,0,2.275.506,5.324,5.324,0,0,0,3.286-1.264L89.551,25.375a5.11,5.11,0,0,0,.506-7.078ZM17.257,37l8.594-12.892,11.628,1.517,3.792-7.836A6.4,6.4,0,0,1,46.579,14H23.324a4.966,4.966,0,0,0-4.3,2.275L8.916,31.441a5.017,5.017,0,0,0,1.517,7.078,3.774,3.774,0,0,0,2.528.758A5.286,5.286,0,0,0,17.257,37Z" transform="translate(-8.063 11.277)" fill="#ff9800"/>
  </g>
</svg>
