<svg xmlns="http://www.w3.org/2000/svg" width="332.999" height="195" viewBox="0 0 332.999 195">
  <path id="Vereinigungsmenge_1" data-name="Vereinigungsmenge 1" d="M2997.256,6807.126v-.055a3.872,3.872,0,0,1,7.743,0v.055a3.872,3.872,0,1,1-7.743,0Zm-23.233,0v-.055a3.873,3.873,0,0,1,7.745,0v.055a3.873,3.873,0,1,1-7.745,0Zm-23.231,0v-.055a3.872,3.872,0,0,1,7.743,0v.055a3.872,3.872,0,1,1-7.743,0Zm-23.233,0v-.055a3.873,3.873,0,0,1,7.745,0v.055a3.873,3.873,0,1,1-7.745,0Zm-23.231,0v-.055a3.872,3.872,0,0,1,7.743,0v.055a3.872,3.872,0,1,1-7.743,0Zm-23.233,0v-.055a3.873,3.873,0,0,1,7.745,0v.055a3.873,3.873,0,1,1-7.745,0Zm-23.231,0v-.055a3.872,3.872,0,0,1,7.743,0v.055a3.872,3.872,0,1,1-7.743,0Zm-23.233,0v-.055a3.872,3.872,0,0,1,7.745,0v.055a3.872,3.872,0,1,1-7.745,0Zm-23.232,0v-.055a3.872,3.872,0,0,1,7.743,0v.055a3.872,3.872,0,1,1-7.743,0Zm-23.233,0v-.055a3.872,3.872,0,0,1,7.745,0v.055a3.872,3.872,0,1,1-7.745,0Zm-23.232,0v-.055a3.872,3.872,0,0,1,7.743,0v.055a3.872,3.872,0,1,1-7.743,0Zm-23.233,0v-.055a3.872,3.872,0,0,1,7.743,0v.055a3.872,3.872,0,1,1-7.743,0Zm-23.233,0v-.055a3.873,3.873,0,0,1,7.745,0v.055a3.873,3.873,0,1,1-7.745,0Zm-23.232,0v-.055a3.872,3.872,0,0,1,7.743,0v.055a3.872,3.872,0,1,1-7.743,0Zm-23.233,0v-.055a3.872,3.872,0,0,1,7.745,0v.055a3.872,3.872,0,1,1-7.745,0Zm325.256-23.4v-.056a3.872,3.872,0,1,1,7.743,0v.056a3.872,3.872,0,0,1-7.743,0Zm-23.233,0v-.056a3.873,3.873,0,0,1,7.745,0v.056a3.873,3.873,0,0,1-7.745,0Zm-23.231,0v-.056a3.872,3.872,0,1,1,7.743,0v.056a3.872,3.872,0,0,1-7.743,0Zm-23.233,0v-.056a3.873,3.873,0,0,1,7.745,0v.056a3.873,3.873,0,0,1-7.745,0Zm-23.231,0v-.056a3.872,3.872,0,1,1,7.743,0v.056a3.872,3.872,0,0,1-7.743,0Zm-23.233,0v-.056a3.873,3.873,0,0,1,7.745,0v.056a3.873,3.873,0,0,1-7.745,0Zm-23.231,0v-.056a3.872,3.872,0,1,1,7.743,0v.056a3.872,3.872,0,0,1-7.743,0Zm-23.233,0v-.056a3.872,3.872,0,0,1,7.745,0v.056a3.872,3.872,0,0,1-7.745,0Zm-23.232,0v-.056a3.872,3.872,0,1,1,7.743,0v.056a3.872,3.872,0,0,1-7.743,0Zm-23.233,0v-.056a3.872,3.872,0,0,1,7.745,0v.056a3.872,3.872,0,0,1-7.745,0Zm-23.232,0v-.056a3.872,3.872,0,1,1,7.743,0v.056a3.872,3.872,0,0,1-7.743,0Zm-23.233,0v-.056a3.872,3.872,0,1,1,7.743,0v.056a3.872,3.872,0,0,1-7.743,0Zm-23.233,0v-.056a3.873,3.873,0,0,1,7.745,0v.056a3.873,3.873,0,0,1-7.745,0Zm-23.232,0v-.056a3.872,3.872,0,1,1,7.743,0v.056a3.872,3.872,0,0,1-7.743,0Zm-23.233,0v-.056a3.872,3.872,0,0,1,7.745,0v.056a3.872,3.872,0,0,1-7.745,0Zm325.256-23.4v-.055a3.872,3.872,0,1,1,7.743,0v.055a3.872,3.872,0,0,1-7.743,0Zm-23.233,0v-.055a3.873,3.873,0,1,1,7.745,0v.055a3.873,3.873,0,0,1-7.745,0Zm-23.231,0v-.055a3.872,3.872,0,1,1,7.743,0v.055a3.872,3.872,0,0,1-7.743,0Zm-23.233,0v-.055a3.873,3.873,0,1,1,7.745,0v.055a3.873,3.873,0,0,1-7.745,0Zm-23.231,0v-.055a3.872,3.872,0,1,1,7.743,0v.055a3.872,3.872,0,0,1-7.743,0Zm-23.233,0v-.055a3.873,3.873,0,1,1,7.745,0v.055a3.873,3.873,0,0,1-7.745,0Zm-23.231,0v-.055a3.872,3.872,0,1,1,7.743,0v.055a3.872,3.872,0,0,1-7.743,0Zm-23.233,0v-.055a3.872,3.872,0,1,1,7.745,0v.055a3.872,3.872,0,0,1-7.745,0Zm-23.232,0v-.055a3.872,3.872,0,1,1,7.743,0v.055a3.872,3.872,0,0,1-7.743,0Zm-23.233,0v-.055a3.872,3.872,0,1,1,7.745,0v.055a3.872,3.872,0,0,1-7.745,0Zm-23.232,0v-.055a3.872,3.872,0,1,1,7.743,0v.055a3.872,3.872,0,0,1-7.743,0Zm-23.233,0v-.055a3.872,3.872,0,1,1,7.743,0v.055a3.872,3.872,0,0,1-7.743,0Zm-23.233,0v-.055a3.873,3.873,0,1,1,7.745,0v.055a3.873,3.873,0,0,1-7.745,0Zm-23.232,0v-.055a3.872,3.872,0,1,1,7.743,0v.055a3.872,3.872,0,0,1-7.743,0Zm-23.233,0v-.055a3.872,3.872,0,1,1,7.745,0v.055a3.872,3.872,0,0,1-7.745,0Zm325.256-23.4v-.057a3.872,3.872,0,0,1,7.743,0v.057a3.872,3.872,0,0,1-7.743,0Zm-23.233,0v-.057a3.873,3.873,0,0,1,7.745,0v.057a3.873,3.873,0,0,1-7.745,0Zm-23.231,0v-.057a3.872,3.872,0,0,1,7.743,0v.057a3.872,3.872,0,0,1-7.743,0Zm-23.233,0v-.057a3.873,3.873,0,0,1,7.745,0v.057a3.873,3.873,0,0,1-7.745,0Zm-23.231,0v-.057a3.872,3.872,0,0,1,7.743,0v.057a3.872,3.872,0,0,1-7.743,0Zm-23.233,0v-.057a3.873,3.873,0,0,1,7.745,0v.057a3.873,3.873,0,0,1-7.745,0Zm-23.231,0v-.057a3.872,3.872,0,0,1,7.743,0v.057a3.872,3.872,0,0,1-7.743,0Zm-23.233,0v-.057a3.872,3.872,0,0,1,7.745,0v.057a3.872,3.872,0,0,1-7.745,0Zm-23.232,0v-.057a3.872,3.872,0,0,1,7.743,0v.057a3.872,3.872,0,0,1-7.743,0Zm-23.233,0v-.057a3.872,3.872,0,0,1,7.745,0v.057a3.872,3.872,0,0,1-7.745,0Zm-23.232,0v-.057a3.872,3.872,0,0,1,7.743,0v.057a3.872,3.872,0,0,1-7.743,0Zm-23.233,0v-.057a3.872,3.872,0,0,1,7.743,0v.057a3.872,3.872,0,0,1-7.743,0Zm-23.233,0v-.057a3.873,3.873,0,0,1,7.745,0v.057a3.873,3.873,0,0,1-7.745,0Zm-23.232,0v-.057a3.872,3.872,0,0,1,7.743,0v.057a3.872,3.872,0,0,1-7.743,0Zm-23.233,0v-.057a3.872,3.872,0,0,1,7.745,0v.057a3.872,3.872,0,0,1-7.745,0Zm325.256-23.4v-.056a3.872,3.872,0,0,1,7.743,0v.056a3.872,3.872,0,1,1-7.743,0Zm-23.233,0v-.056a3.873,3.873,0,0,1,7.745,0v.056a3.873,3.873,0,0,1-7.745,0Zm-23.231,0v-.056a3.872,3.872,0,0,1,7.743,0v.056a3.872,3.872,0,1,1-7.743,0Zm-23.233,0v-.056a3.873,3.873,0,0,1,7.745,0v.056a3.873,3.873,0,0,1-7.745,0Zm-23.231,0v-.056a3.872,3.872,0,0,1,7.743,0v.056a3.872,3.872,0,1,1-7.743,0Zm-23.233,0v-.056a3.873,3.873,0,0,1,7.745,0v.056a3.873,3.873,0,0,1-7.745,0Zm-23.231,0v-.056a3.872,3.872,0,0,1,7.743,0v.056a3.872,3.872,0,1,1-7.743,0Zm-23.233,0v-.056a3.872,3.872,0,0,1,7.745,0v.056a3.872,3.872,0,0,1-7.745,0Zm-23.232,0v-.056a3.872,3.872,0,0,1,7.743,0v.056a3.872,3.872,0,1,1-7.743,0Zm-23.233,0v-.056a3.872,3.872,0,0,1,7.745,0v.056a3.872,3.872,0,0,1-7.745,0Zm-23.232,0v-.056a3.872,3.872,0,0,1,7.743,0v.056a3.872,3.872,0,1,1-7.743,0Zm-23.233,0v-.056a3.872,3.872,0,0,1,7.743,0v.056a3.872,3.872,0,1,1-7.743,0Zm-23.233,0v-.056a3.873,3.873,0,0,1,7.745,0v.056a3.873,3.873,0,0,1-7.745,0Zm-23.232,0v-.056a3.872,3.872,0,0,1,7.743,0v.056a3.872,3.872,0,1,1-7.743,0Zm-23.233,0v-.056a3.872,3.872,0,0,1,7.745,0v.056a3.872,3.872,0,0,1-7.745,0Zm325.256-23.4v-.057a3.872,3.872,0,0,1,7.743,0v.057a3.872,3.872,0,0,1-7.743,0Zm-23.233,0v-.057a3.873,3.873,0,0,1,7.745,0v.057a3.873,3.873,0,0,1-7.745,0Zm-23.231,0v-.057a3.872,3.872,0,0,1,7.743,0v.057a3.872,3.872,0,0,1-7.743,0Zm-23.233,0v-.057a3.873,3.873,0,0,1,7.745,0v.057a3.873,3.873,0,0,1-7.745,0Zm-23.231,0v-.057a3.872,3.872,0,0,1,7.743,0v.057a3.872,3.872,0,0,1-7.743,0Zm-23.233,0v-.057a3.873,3.873,0,0,1,7.745,0v.057a3.873,3.873,0,0,1-7.745,0Zm-23.231,0v-.057a3.872,3.872,0,0,1,7.743,0v.057a3.872,3.872,0,0,1-7.743,0Zm-23.233,0v-.057a3.872,3.872,0,0,1,7.745,0v.057a3.872,3.872,0,0,1-7.745,0Zm-23.232,0v-.057a3.872,3.872,0,0,1,7.743,0v.057a3.872,3.872,0,0,1-7.743,0Zm-23.233,0v-.057a3.872,3.872,0,0,1,7.745,0v.057a3.872,3.872,0,0,1-7.745,0Zm-23.232,0v-.057a3.872,3.872,0,0,1,7.743,0v.057a3.872,3.872,0,0,1-7.743,0Zm-23.233,0v-.057a3.872,3.872,0,0,1,7.743,0v.057a3.872,3.872,0,0,1-7.743,0Zm-23.233,0v-.057a3.873,3.873,0,0,1,7.745,0v.057a3.873,3.873,0,0,1-7.745,0Zm-23.232,0v-.057a3.872,3.872,0,0,1,7.743,0v.057a3.872,3.872,0,0,1-7.743,0Zm-23.233,0v-.057a3.872,3.872,0,0,1,7.745,0v.057a3.872,3.872,0,0,1-7.745,0Zm325.256-23.4v-.055a3.872,3.872,0,0,1,7.743,0v.055a3.872,3.872,0,1,1-7.743,0Zm-23.233,0v-.055a3.873,3.873,0,0,1,7.745,0v.055a3.873,3.873,0,1,1-7.745,0Zm-23.231,0v-.055a3.872,3.872,0,0,1,7.743,0v.055a3.872,3.872,0,1,1-7.743,0Zm-23.233,0v-.055a3.873,3.873,0,0,1,7.745,0v.055a3.873,3.873,0,1,1-7.745,0Zm-23.231,0v-.055a3.872,3.872,0,0,1,7.743,0v.055a3.872,3.872,0,1,1-7.743,0Zm-23.233,0v-.055a3.873,3.873,0,0,1,7.745,0v.055a3.873,3.873,0,1,1-7.745,0Zm-23.231,0v-.055a3.872,3.872,0,0,1,7.743,0v.055a3.872,3.872,0,1,1-7.743,0Zm-23.233,0v-.055a3.872,3.872,0,0,1,7.745,0v.055a3.872,3.872,0,1,1-7.745,0Zm-23.232,0v-.055a3.872,3.872,0,0,1,7.743,0v.055a3.872,3.872,0,1,1-7.743,0Zm-23.233,0v-.055a3.872,3.872,0,0,1,7.745,0v.055a3.872,3.872,0,1,1-7.745,0Zm-23.232,0v-.055a3.872,3.872,0,0,1,7.743,0v.055a3.872,3.872,0,1,1-7.743,0Zm-23.233,0v-.055a3.872,3.872,0,0,1,7.743,0v.055a3.872,3.872,0,1,1-7.743,0Zm-23.233,0v-.055a3.873,3.873,0,0,1,7.745,0v.055a3.873,3.873,0,1,1-7.745,0Zm-23.232,0v-.055a3.872,3.872,0,0,1,7.743,0v.055a3.872,3.872,0,1,1-7.743,0Zm-23.233,0v-.055a3.872,3.872,0,0,1,7.745,0v.055a3.872,3.872,0,1,1-7.745,0Zm325.256-23.4v-.055a3.872,3.872,0,0,1,7.743,0v.055a3.872,3.872,0,1,1-7.743,0Zm-23.233,0v-.055a3.873,3.873,0,0,1,7.745,0v.055a3.873,3.873,0,1,1-7.745,0Zm-23.231,0v-.055a3.872,3.872,0,0,1,7.743,0v.055a3.872,3.872,0,1,1-7.743,0Zm-23.233,0v-.055a3.873,3.873,0,0,1,7.745,0v.055a3.873,3.873,0,1,1-7.745,0Zm-23.231,0v-.055a3.872,3.872,0,0,1,7.743,0v.055a3.872,3.872,0,1,1-7.743,0Zm-23.233,0v-.055a3.873,3.873,0,0,1,7.745,0v.055a3.873,3.873,0,1,1-7.745,0Zm-23.231,0v-.055a3.872,3.872,0,0,1,7.743,0v.055a3.872,3.872,0,1,1-7.743,0Zm-23.233,0v-.055a3.872,3.872,0,0,1,7.745,0v.055a3.872,3.872,0,1,1-7.745,0Zm-23.232,0v-.055a3.872,3.872,0,0,1,7.743,0v.055a3.872,3.872,0,1,1-7.743,0Zm-23.233,0v-.055a3.872,3.872,0,0,1,7.745,0v.055a3.872,3.872,0,1,1-7.745,0Zm-23.232,0v-.055a3.872,3.872,0,0,1,7.743,0v.055a3.872,3.872,0,1,1-7.743,0Zm-23.233,0v-.055a3.872,3.872,0,0,1,7.743,0v.055a3.872,3.872,0,1,1-7.743,0Zm-23.233,0v-.055a3.873,3.873,0,0,1,7.745,0v.055a3.873,3.873,0,1,1-7.745,0Zm-23.232,0v-.055a3.872,3.872,0,0,1,7.743,0v.055a3.872,3.872,0,1,1-7.743,0Zm-23.233,0v-.055a3.872,3.872,0,0,1,7.745,0v.055a3.872,3.872,0,1,1-7.745,0Zm325.256-23.4v-.056a3.872,3.872,0,1,1,7.743,0v.056a3.872,3.872,0,0,1-7.743,0Zm-23.233,0v-.056a3.873,3.873,0,0,1,7.745,0v.056a3.873,3.873,0,0,1-7.745,0Zm-23.231,0v-.056a3.872,3.872,0,1,1,7.743,0v.056a3.872,3.872,0,0,1-7.743,0Zm-23.233,0v-.056a3.873,3.873,0,0,1,7.745,0v.056a3.873,3.873,0,0,1-7.745,0Zm-23.231,0v-.056a3.872,3.872,0,1,1,7.743,0v.056a3.872,3.872,0,0,1-7.743,0Zm-23.233,0v-.056a3.873,3.873,0,0,1,7.745,0v.056a3.873,3.873,0,0,1-7.745,0Zm-23.231,0v-.056a3.872,3.872,0,1,1,7.743,0v.056a3.872,3.872,0,0,1-7.743,0Zm-23.233,0v-.056a3.872,3.872,0,0,1,7.745,0v.056a3.872,3.872,0,0,1-7.745,0Zm-23.232,0v-.056a3.872,3.872,0,1,1,7.743,0v.056a3.872,3.872,0,0,1-7.743,0Zm-23.233,0v-.056a3.872,3.872,0,0,1,7.745,0v.056a3.872,3.872,0,0,1-7.745,0Zm-23.232,0v-.056a3.872,3.872,0,1,1,7.743,0v.056a3.872,3.872,0,0,1-7.743,0Zm-23.233,0v-.056a3.872,3.872,0,1,1,7.743,0v.056a3.872,3.872,0,0,1-7.743,0Zm-23.233,0v-.056a3.873,3.873,0,0,1,7.745,0v.056a3.873,3.873,0,0,1-7.745,0Zm-23.232,0v-.056a3.872,3.872,0,1,1,7.743,0v.056a3.872,3.872,0,0,1-7.743,0Zm-23.233,0v-.056a3.872,3.872,0,0,1,7.745,0v.056a3.872,3.872,0,0,1-7.745,0Z" transform="translate(-2672 -6616)" fill="#5d8493"/>
</svg>
